<svg xmlns="http://www.w3.org/2000/svg" viewBox="228 198 395 176" role="img" aria-label="Vaypatel · Telecomunicaciones y electricidad"><title>Vaypatel · Telecomunicaciones y electricidad</title>
<path fill-rule="evenodd" fill="rgb(0%, 62.75%, 89.02%)" d="M 451.56 257.48 C 470.03 235.82 490.58 210.46 448.72 205.31 C 407.65 200.26 319 222.33 269.14 244.14 C 322.52 218.47 401.45 197.62 448.86 204.27 C 491.29 210.21 470.73 235.55 451.56 257.48 Z M 269.14 244.14 C 261 247.7 253.89 251.25 248.2 254.68 L 238.55 261.31 C 247.15 255.52 257.54 249.71 269.14 244.14 Z M 238.55 261.31 L 235.83 263.18 C 236.71 262.56 237.62 261.94 238.55 261.31 "/>
<path fill-rule="nonzero" fill="rgb(99.61%, 99.61%, 99.61%)" d="M 261.89 341.98 L 232.96 267.09 L 243.7 267.09 L 263.15 321.52 C 264.7 325.88 266.03 329.95 267.07 333.77 C 268.22 329.68 269.57 325.6 271.1 321.52 L 291.29 267.09 L 301.4 267.09 L 272.2 341.98 Z M 261.89 341.98 "/>
<path fill-rule="nonzero" fill="rgb(99.61%, 99.61%, 99.61%)" d="M 307.01 267.09 L 309.42 267.09 L 339.91 341.98 L 328.63 341.98 L 319.96 319.29 L 288.55 319.29 L 291.4 311.23 L 316.86 311.23 L 314.36 304.58 L 303.96 275.73 Z M 307.01 267.09 "/>
<path fill-rule="nonzero" fill="rgb(99.61%, 99.61%, 99.61%)" d="M 439.91 267.09 L 442.32 267.09 L 472.8 341.98 L 461.53 341.98 L 452.86 319.29 L 421.45 319.29 L 424.3 311.23 L 449.76 311.23 L 447.26 304.58 L 436.85 275.73 Z M 439.91 267.09 "/>
<path fill-rule="nonzero" fill="rgb(99.61%, 99.61%, 99.61%)" d="M 344.58 341.98 L 344.58 310.26 L 350.09 302.36 C 352.38 298.44 355.16 294.05 358.37 289.16 L 372.88 267.09 L 384.43 267.09 L 354.52 310.26 L 354.52 341.98 Z M 344.58 341.98 "/>
<path fill-rule="nonzero" fill="rgb(99.61%, 99.61%, 99.61%)" d="M 372.55 341.98 L 372.55 302.66 L 401.84 302.66 C 408.25 302.66 412.79 301.47 415.49 299.08 C 418.17 296.7 419.52 293.35 419.52 289.01 C 419.52 285.89 418.73 283.2 417.14 280.97 C 415.56 278.74 413.46 277.26 410.89 276.54 C 409.21 276.11 406.12 275.88 401.64 275.88 L 382.49 275.88 L 389 267.09 L 400.83 267.09 C 405.79 267.09 409.59 267.36 412.23 267.81 C 415.9 268.44 418.99 269.59 421.48 271.3 C 423.98 273.02 425.98 275.43 427.5 278.51 C 429.02 281.6 429.77 285 429.77 288.71 C 429.77 295.05 427.74 300.44 423.68 304.84 C 419.64 309.25 412.3 311.44 401.7 311.44 L 382.49 311.44 L 382.49 341.98 Z M 372.55 341.98 "/>
<path fill-rule="nonzero" fill="rgb(11.37%, 43.14%, 56.08%)" d="M 482.07 341.98 L 482.07 275.88 L 454.1 275.88 L 450.1 267.09 L 516.69 267.09 L 516.69 275.88 L 492 275.88 L 492 341.98 Z M 505.96 267.09 L 550.11 267.09 L 550.11 275.88 L 505.96 275.88 Z M 505.96 298.89 L 534.25 298.89 L 534.25 307.68 L 505.96 307.68 Z M 505.96 333.2 L 551.88 333.2 L 551.88 341.98 L 505.96 341.98 Z M 556.24 341.98 L 556.24 267.09 L 566.18 267.09 L 566.18 333.2 L 602.99 333.2 L 602.99 341.98 Z M 556.24 341.98 "/>
<path fill-rule="nonzero" fill="rgb(23.14%, 52.16%, 63.14%)" d="M 249.53 361.77 C 249.04 361.77 248.79 362.02 248.79 362.51 C 248.79 363 249.03 363.25 249.52 363.25 L 253.24 363.25 L 253.24 368.49 C 253.24 368.98 253.49 369.23 253.99 369.23 C 254.48 369.23 254.73 368.98 254.73 368.49 L 254.73 363.25 L 258.47 363.25 C 258.96 363.25 259.2 363 259.2 362.51 C 259.2 362.02 258.95 361.77 258.46 361.77 Z M 260.54 368.47 C 260.54 368.97 260.79 369.22 261.28 369.22 L 270.22 369.22 C 270.71 369.22 270.96 368.97 270.96 368.47 C 270.96 367.98 270.71 367.73 270.22 367.73 L 262.02 367.73 L 262.02 366.25 L 268.73 366.25 C 269.23 366.25 269.48 366 269.48 365.5 C 269.48 365 269.23 364.75 268.73 364.75 L 262.02 364.75 L 262.02 363.27 L 270.22 363.27 C 270.71 363.27 270.96 363.02 270.96 362.52 C 270.96 362.02 270.71 361.77 270.22 361.77 L 261.28 361.77 C 260.79 361.77 260.54 362.02 260.54 362.51 Z M 272.28 362.51 L 272.28 368.47 C 272.28 368.97 272.53 369.22 273.03 369.22 L 281.97 369.22 C 282.46 369.22 282.71 368.96 282.71 368.46 L 282.71 366.99 C 282.71 366.48 282.46 366.22 281.97 366.22 C 281.47 366.22 281.22 366.48 281.22 366.98 L 281.24 367.73 L 273.77 367.73 L 273.77 362.51 C 273.76 362.02 273.51 361.77 273.02 361.77 C 272.53 361.77 272.28 362.02 272.28 362.51 Z M 284.03 368.47 C 284.03 368.97 284.28 369.22 284.77 369.22 L 293.71 369.22 C 294.21 369.22 294.46 368.97 294.46 368.47 C 294.46 367.98 294.21 367.73 293.71 367.73 L 285.52 367.73 L 285.52 366.25 L 292.23 366.25 C 292.73 366.25 292.97 366 292.97 365.5 C 292.97 365 292.73 364.75 292.23 364.75 L 285.52 364.75 L 285.52 363.27 L 293.71 363.27 C 294.21 363.27 294.46 363.02 294.46 362.52 C 294.46 362.02 294.21 361.77 293.71 361.77 L 284.77 361.77 C 284.28 361.77 284.03 362.02 284.03 362.51 Z M 295.78 364.76 L 295.78 366.24 C 295.78 368.23 296.77 369.22 298.75 369.22 L 305.44 369.22 C 305.93 369.22 306.17 368.97 306.17 368.47 C 306.18 367.98 305.94 367.73 305.45 367.73 L 298.76 367.73 C 297.76 367.73 297.27 367.23 297.27 366.24 L 297.27 364.76 C 297.27 363.77 297.76 363.27 298.75 363.25 L 305.44 363.25 C 305.91 363.25 306.16 363.01 306.16 362.52 C 306.16 362.03 305.91 361.78 305.44 361.78 L 298.75 361.79 C 296.77 361.79 295.78 362.78 295.78 364.76 Z M 317.88 364.76 C 317.88 362.78 316.89 361.79 314.91 361.79 L 310.45 361.78 C 308.47 361.78 307.48 362.77 307.48 364.75 L 307.48 366.24 C 307.48 368.23 308.47 369.22 310.46 369.22 L 314.91 369.22 C 316.89 369.22 317.88 368.23 317.88 366.24 Z M 308.95 364.76 C 308.95 363.76 309.45 363.25 310.45 363.25 L 314.9 363.25 C 315.89 363.27 316.39 363.77 316.39 364.76 L 316.39 366.24 C 316.39 367.23 315.89 367.73 314.9 367.73 L 310.45 367.73 C 309.46 367.73 308.96 367.24 308.96 366.25 Z M 329.58 362.5 C 329.57 362.25 329.44 362.04 329.2 361.88 C 328.96 361.72 328.67 361.73 328.34 361.92 L 324.37 364.59 L 320.36 361.92 C 320.07 361.76 319.8 361.78 319.55 361.96 C 319.3 362.15 319.18 362.33 319.18 362.51 L 319.18 368.46 C 319.17 368.96 319.41 369.2 319.91 369.2 C 320.4 369.2 320.65 368.96 320.66 368.46 L 320.66 363.89 L 323.64 365.9 C 323.91 366.14 324.15 366.26 324.36 366.25 C 324.57 366.25 324.82 366.12 325.11 365.89 L 328.09 363.87 L 328.11 368.47 C 328.11 368.95 328.35 369.19 328.84 369.19 C 329.33 369.19 329.58 368.95 329.58 368.47 Z M 330.91 362.51 L 330.91 366.22 C 330.91 368.22 331.9 369.22 333.89 369.22 L 338.36 369.22 C 340.34 369.22 341.34 368.21 341.34 366.21 L 341.34 362.54 C 341.34 362.03 341.09 361.77 340.59 361.77 C 340.1 361.77 339.85 362.02 339.85 362.52 L 339.85 366.22 C 339.86 367.23 339.37 367.73 338.37 367.73 L 333.89 367.73 C 332.89 367.73 332.39 367.23 332.39 366.22 L 332.39 362.51 C 332.39 362.02 332.14 361.77 331.64 361.77 C 331.16 361.77 330.91 362.02 330.91 362.51 Z M 342.69 368.47 C 342.69 368.97 342.94 369.22 343.43 369.22 C 343.92 369.22 344.17 368.97 344.18 368.49 L 344.18 363.98 L 351.6 368.88 C 351.83 369.11 352.14 369.21 352.53 369.21 C 352.91 369.2 353.11 368.96 353.11 368.46 L 353.11 362.51 C 353.12 362.03 352.87 361.78 352.38 361.78 C 351.88 361.78 351.63 362.02 351.62 362.5 L 351.61 366.98 L 344.18 362.15 C 343.91 361.91 343.6 361.78 343.24 361.78 C 342.88 361.78 342.69 362.03 342.69 362.52 Z M 354.43 362.51 L 354.43 368.47 C 354.43 368.97 354.68 369.22 355.17 369.22 C 355.66 369.22 355.91 368.96 355.91 368.46 L 355.92 362.51 C 355.92 362.02 355.66 361.77 355.17 361.77 C 354.68 361.77 354.43 362.02 354.43 362.51 Z M 357.27 364.76 L 357.27 366.24 C 357.27 368.23 358.26 369.22 360.23 369.22 L 366.93 369.22 C 367.41 369.22 367.66 368.97 367.66 368.47 C 367.67 367.98 367.43 367.73 366.94 367.73 L 360.25 367.73 C 359.25 367.73 358.75 367.23 358.75 366.24 L 358.75 364.76 C 358.75 363.77 359.25 363.27 360.23 363.25 L 366.93 363.25 C 367.41 363.25 367.64 363.01 367.64 362.52 C 367.64 362.03 367.41 361.78 366.93 361.78 L 360.23 361.79 C 358.26 361.79 357.27 362.78 357.27 364.76 Z M 368.96 368.47 C 368.96 368.97 369.18 369.22 369.62 369.22 C 370.06 369.22 370.33 368.97 370.45 368.49 L 370.92 366.25 L 377.32 366.25 L 377.91 368.45 C 378.04 368.95 378.32 369.2 378.76 369.2 C 379.19 369.2 379.41 368.96 379.41 368.46 L 378.03 362.52 C 377.94 362.02 377.65 361.77 377.15 361.77 L 371.19 361.77 C 370.7 361.77 370.38 362.02 370.25 362.51 Z M 371.18 364.75 L 371.52 363.27 L 376.76 363.27 L 377.14 364.75 Z M 380.73 364.76 L 380.73 366.24 C 380.73 368.23 381.71 369.22 383.7 369.22 L 390.39 369.22 C 390.87 369.22 391.12 368.97 391.12 368.47 C 391.12 367.98 390.89 367.73 390.4 367.73 L 383.71 367.73 C 382.71 367.73 382.21 367.23 382.21 366.24 L 382.21 364.76 C 382.21 363.77 382.71 363.27 383.7 363.25 L 390.39 363.25 C 390.86 363.25 391.11 363.01 391.11 362.52 C 391.11 362.03 390.86 361.78 390.39 361.78 L 383.7 361.79 C 381.71 361.79 380.73 362.78 380.73 364.76 Z M 392.43 362.51 L 392.43 368.47 C 392.43 368.97 392.67 369.22 393.17 369.22 C 393.66 369.22 393.91 368.96 393.91 368.46 L 393.92 362.51 C 393.91 362.02 393.66 361.77 393.17 361.77 C 392.67 361.77 392.43 362.02 392.43 362.51 Z M 405.67 364.76 C 405.67 362.78 404.68 361.79 402.7 361.79 L 398.23 361.78 C 396.26 361.78 395.27 362.77 395.27 364.75 L 395.27 366.24 C 395.27 368.23 396.26 369.22 398.25 369.22 L 402.7 369.22 C 404.68 369.22 405.67 368.23 405.67 366.24 Z M 396.74 364.76 C 396.74 363.76 397.23 363.25 398.23 363.25 L 402.69 363.25 C 403.68 363.27 404.18 363.77 404.18 364.76 L 404.18 366.24 C 404.18 367.23 403.68 367.73 402.69 367.73 L 398.23 367.73 C 397.25 367.73 396.75 367.24 396.75 366.25 Z M 406.98 368.47 C 406.98 368.97 407.22 369.22 407.71 369.22 C 408.2 369.22 408.45 368.97 408.46 368.49 L 408.46 363.98 L 415.88 368.88 C 416.11 369.11 416.42 369.21 416.81 369.21 C 417.2 369.2 417.39 368.96 417.39 368.46 L 417.39 362.51 C 417.4 362.03 417.15 361.78 416.66 361.78 C 416.16 361.78 415.91 362.02 415.9 362.5 L 415.89 366.98 L 408.46 362.15 C 408.2 361.91 407.88 361.78 407.52 361.78 C 407.16 361.78 406.98 362.03 406.98 362.52 Z M 418.71 368.47 C 418.71 368.97 418.96 369.22 419.45 369.22 L 428.39 369.22 C 428.89 369.22 429.14 368.97 429.14 368.47 C 429.14 367.98 428.89 367.73 428.39 367.73 L 420.2 367.73 L 420.2 366.25 L 426.91 366.25 C 427.41 366.25 427.65 366 427.65 365.5 C 427.65 365 427.41 364.75 426.91 364.75 L 420.2 364.75 L 420.2 363.27 L 428.39 363.27 C 428.89 363.27 429.14 363.02 429.14 362.52 C 429.14 362.02 428.89 361.77 428.39 361.77 L 419.45 361.77 C 418.96 361.77 418.71 362.02 418.71 362.51 Z M 430.46 364.02 C 430.46 365.5 431.21 366.24 432.7 366.24 L 438.6 366.24 C 439.1 366.24 439.35 366.48 439.35 366.98 C 439.34 367.47 439.1 367.72 438.61 367.73 L 431.2 367.73 C 430.71 367.74 430.46 367.99 430.46 368.47 C 430.46 368.96 430.71 369.2 431.2 369.2 L 438.62 369.2 C 440.11 369.2 440.86 368.46 440.85 366.98 C 440.85 365.49 440.1 364.75 438.61 364.75 L 432.7 364.75 C 432.2 364.75 431.94 364.51 431.94 364.02 C 431.93 363.54 432.18 363.28 432.7 363.25 L 440.09 363.27 C 440.57 363.26 440.82 363.01 440.82 362.52 C 440.82 362.04 440.58 361.79 440.09 361.79 L 432.7 361.81 C 431.21 361.81 430.46 362.55 430.46 364.02 Z M 459.13 363.17 C 459.54 362.89 459.61 362.54 459.34 362.14 C 459.07 361.73 458.73 361.66 458.32 361.92 L 454.34 364.59 L 450.34 361.92 C 449.93 361.66 449.59 361.73 449.31 362.14 C 449.04 362.54 449.11 362.89 449.52 363.17 L 453.61 365.9 L 453.62 368.46 C 453.62 368.96 453.86 369.2 454.35 369.2 C 454.84 369.2 455.09 368.95 455.1 368.45 L 455.09 365.89 Z M 467.78 368.47 C 467.78 368.97 468.03 369.22 468.52 369.22 L 477.46 369.22 C 477.96 369.22 478.2 368.97 478.2 368.47 C 478.2 367.98 477.96 367.73 477.46 367.73 L 469.26 367.73 L 469.26 366.25 L 475.98 366.25 C 476.47 366.25 476.72 366 476.72 365.5 C 476.72 365 476.47 364.75 475.98 364.75 L 469.26 364.75 L 469.26 363.27 L 477.46 363.27 C 477.96 363.27 478.2 363.02 478.2 362.52 C 478.2 362.02 477.96 361.77 477.46 361.77 L 468.52 361.77 C 468.03 361.77 467.78 362.02 467.78 362.51 Z M 479.52 362.51 L 479.52 368.47 C 479.52 368.97 479.77 369.22 480.27 369.22 L 489.21 369.22 C 489.7 369.22 489.95 368.96 489.95 368.46 L 489.95 366.99 C 489.95 366.48 489.7 366.22 489.21 366.22 C 488.71 366.22 488.47 366.48 488.47 366.98 L 488.48 367.73 L 481.01 367.73 L 481.01 362.51 C 481 362.02 480.75 361.77 480.26 361.77 C 479.77 361.77 479.52 362.02 479.52 362.51 Z M 491.27 368.47 C 491.27 368.97 491.52 369.22 492.02 369.22 L 500.96 369.22 C 501.45 369.22 501.7 368.97 501.7 368.47 C 501.7 367.98 501.45 367.73 500.96 367.73 L 492.76 367.73 L 492.76 366.25 L 499.47 366.25 C 499.97 366.25 500.21 366 500.21 365.5 C 500.21 365 499.97 364.75 499.47 364.75 L 492.76 364.75 L 492.76 363.27 L 500.96 363.27 C 501.45 363.27 501.7 363.02 501.7 362.52 C 501.7 362.02 501.45 361.77 500.96 361.77 L 492.02 361.77 C 491.52 361.77 491.27 362.02 491.27 362.51 Z M 503.02 364.76 L 503.02 366.24 C 503.02 368.23 504.01 369.22 505.99 369.22 L 512.68 369.22 C 513.17 369.22 513.41 368.97 513.42 368.47 C 513.42 367.98 513.18 367.73 512.7 367.73 L 506 367.73 C 505.01 367.73 504.51 367.23 504.51 366.24 L 504.51 364.76 C 504.51 363.77 505 363.27 505.99 363.25 L 512.68 363.25 C 513.16 363.25 513.4 363.01 513.4 362.52 C 513.4 362.03 513.16 361.78 512.68 361.78 L 505.99 361.79 C 504.01 361.79 503.02 362.78 503.02 364.76 Z M 515.46 361.77 C 514.97 361.77 514.72 362.02 514.72 362.51 C 514.72 363 514.96 363.25 515.45 363.25 L 519.18 363.25 L 519.18 368.49 C 519.18 368.98 519.42 369.23 519.92 369.23 C 520.42 369.23 520.67 368.98 520.67 368.49 L 520.67 363.25 L 524.41 363.25 C 524.89 363.25 525.14 363 525.14 362.51 C 525.14 362.02 524.89 361.77 524.39 361.77 Z M 535.38 364.03 C 535.38 364.52 535.14 364.76 534.63 364.76 L 527.95 364.76 L 527.95 363.28 L 534.64 363.28 C 535.13 363.29 535.38 363.54 535.38 364.03 Z M 526.47 368.46 C 526.47 368.96 526.71 369.2 527.2 369.2 C 527.7 369.2 527.95 368.96 527.95 368.46 L 527.95 366.24 L 530.93 366.24 L 535.7 369.07 C 536.11 369.31 536.45 369.23 536.71 368.81 C 536.96 368.39 536.88 368.05 536.44 367.79 L 533.59 366.25 L 534.62 366.25 C 536.11 366.24 536.86 365.49 536.86 364.01 C 536.86 362.52 536.11 361.78 534.62 361.78 L 527.21 361.78 C 526.72 361.78 526.47 362.03 526.47 362.52 Z M 538.18 362.51 L 538.18 368.47 C 538.18 368.97 538.43 369.22 538.92 369.22 C 539.41 369.22 539.66 368.96 539.66 368.46 L 539.67 362.51 C 539.67 362.02 539.41 361.77 538.92 361.77 C 538.43 361.77 538.18 362.02 538.18 362.51 Z M 541.02 364.76 L 541.02 366.24 C 541.02 368.23 542.01 369.22 543.99 369.22 L 550.68 369.22 C 551.16 369.22 551.41 368.97 551.41 368.47 C 551.42 367.98 551.18 367.73 550.69 367.73 L 544 367.73 C 543 367.73 542.5 367.23 542.5 366.24 L 542.5 364.76 C 542.5 363.77 543 363.27 543.99 363.25 L 550.68 363.25 C 551.16 363.25 551.39 363.01 551.39 362.52 C 551.39 362.03 551.16 361.78 550.68 361.78 L 543.99 361.79 C 542.01 361.79 541.02 362.78 541.02 364.76 Z M 552.71 362.51 L 552.71 368.47 C 552.71 368.97 552.96 369.22 553.46 369.22 C 553.95 369.22 554.2 368.96 554.2 368.46 L 554.21 362.51 C 554.21 362.02 553.95 361.77 553.46 361.77 C 552.96 361.77 552.71 362.02 552.71 362.51 Z M 565.96 364.76 C 565.96 362.78 564.96 361.79 562.99 361.79 L 556.3 361.78 C 555.81 361.78 555.56 362.03 555.55 362.51 L 555.55 368.45 C 555.55 368.96 555.8 369.22 556.3 369.22 L 562.99 369.22 C 564.96 369.22 565.96 368.23 565.96 366.24 Z M 557.03 363.25 L 562.98 363.25 C 563.97 363.27 564.47 363.77 564.47 364.76 L 564.47 366.24 C 564.47 367.23 563.97 367.73 562.98 367.73 L 557.04 367.73 Z M 567.27 368.47 C 567.27 368.97 567.48 369.22 567.92 369.22 C 568.36 369.22 568.63 368.97 568.75 368.49 L 569.22 366.25 L 575.62 366.25 L 576.21 368.45 C 576.34 368.95 576.62 369.2 577.06 369.2 C 577.49 369.2 577.71 368.96 577.71 368.46 L 576.33 362.52 C 576.24 362.02 575.95 361.77 575.45 361.77 L 569.49 361.77 C 569 361.77 568.68 362.02 568.55 362.51 Z M 569.48 364.75 L 569.82 363.27 L 575.06 363.27 L 575.44 364.75 Z M 589.43 364.76 C 589.43 362.78 588.44 361.79 586.46 361.79 L 579.77 361.78 C 579.29 361.78 579.04 362.03 579.03 362.51 L 579.03 368.45 C 579.03 368.96 579.28 369.22 579.77 369.22 L 586.46 369.22 C 588.44 369.22 589.43 368.23 589.43 366.24 Z M 580.5 363.25 L 586.45 363.25 C 587.45 363.27 587.95 363.77 587.95 364.76 L 587.95 366.24 C 587.95 367.23 587.45 367.73 586.45 367.73 L 580.51 367.73 Z M 580.5 363.25 "/>
<path fill-rule="evenodd" fill="rgb(11.37%, 43.14%, 56.08%)" d="M 581.95 310.45 C 726.31 203.16 399.84 179.37 234.95 263.65 C 305.86 225.93 695.31 172.98 581.95 310.45 "/>
<path fill-rule="evenodd" fill="rgb(0%, 62.75%, 89.02%)" stroke-width="1.42" stroke-linecap="butt" stroke-linejoin="miter" stroke="rgb(0%, 0%, 0%)" stroke-opacity="1" stroke-miterlimit="22.93" d="M 468.29 392.34 C 461.99 392.34 456.88 387.24 456.88 380.94 C 456.88 374.64 461.99 369.53 468.29 369.53 C 474.59 369.53 479.69 374.64 479.69 380.94 C 479.69 387.24 474.59 392.34 468.29 392.34 Z M 468.29 392.34 " transform="matrix(1, 0, 0, -1, 0.46, 594.55)"/>
</svg>
